<?xml version="1.0" encoding="UTF-8"?>
<svg id="Layer_1" xmlns="http://www.w3.org/2000/svg" version="1.1" viewBox="0 0 1189 1078">
  <!-- Generator: Adobe Illustrator 30.5.1, SVG Export Plug-In . SVG Version: 2.1.4 Build 3)  -->
  <defs>
    <style>
      .st0 {
        fill: #c69798;
      }

      .st1 {
        fill: #d0a9aa;
      }

      .st2 {
        fill: #a75e5f;
      }

      .st3 {
        fill: #b39697;
      }

      .st4 {
        fill: #aa6466;
      }

      .st5 {
        fill: #9e4e50;
      }

      .st6 {
        fill: #7d1619;
      }

      .st7 {
        fill: #4a4749;
      }

      .st8 {
        fill: #7b7678;
      }

      .st9 {
        fill: #414042;
      }

      .st10 {
        fill: #a15354;
      }

      .st11 {
        fill: #aa6465;
      }

      .st12 {
        fill: #cba1a2;
      }

      .st13 {
        fill: #b49899;
      }

      .st14 {
        fill: #cca2a3;
      }

      .st15 {
        fill: #b57879;
      }

      .st16 {
        fill: #cca1a2;
      }

      .st17 {
        fill: #b59d9e;
      }

      .st18 {
        fill: #b47576;
      }

      .st19 {
        fill: #b29fa0;
      }

      .st20 {
        fill: #923739;
      }

      .st21 {
        fill: #7d7577;
      }

      .st22 {
        fill: #ab6667;
      }

      .st23 {
        fill: #b09d9e;
      }

      .st24 {
        fill: #b6a1a2;
      }

      .st25 {
        fill: #b39d9e;
      }

      .st26 {
        fill: #943c3e;
      }

      .st27 {
        fill: #ab6566;
      }

      .st28 {
        fill: #bd888a;
      }

      .st29 {
        fill: #b39495;
      }

      .st30 {
        fill: #be898a;
      }

      .st31 {
        fill: #5e2e30;
      }

      .st32 {
        fill: #a45a5b;
      }

      .st33 {
        fill: #d1acad;
      }

      .st34 {
        fill: #a55b5d;
      }

      .st35 {
        fill: #b57778;
      }

      .st36 {
        fill: #473c3e;
      }

      .st37 {
        fill: #b4a0a1;
      }

      .st38 {
        fill: #c59597;
      }

      .st39 {
        fill: #963f41;
      }

      .st40 {
        fill: #d2adae;
      }

      .st41 {
        fill: #92383a;
      }

      .st42 {
        fill: #d2aeaf;
      }

      .st43 {
        fill: #c99c9d;
      }

      .st44 {
        fill: #8f3335;
      }

      .st45 {
        fill: #c49395;
      }

      .st46 {
        fill: #b5a0a1;
      }

      .st47 {
        fill: #953e40;
      }

      .st48 {
        fill: #974042;
      }

      .st49 {
        fill: #ae6c6d;
      }

      .st50 {
        fill: #b6a0a1;
      }

      .st51 {
        fill: #d8b9ba;
      }

      .st52 {
        fill: #b87d7e;
      }

      .st53 {
        fill: #463c3e;
      }

      .st54 {
        fill: #b69fa0;
      }

      .st55 {
        fill: #913637;
      }

      .st56 {
        fill: #be898b;
      }

      .st57 {
        fill: #9c4b4d;
      }

      .st58 {
        fill: #a75f60;
      }

      .st59 {
        fill: #963e40;
      }

      .st60 {
        fill: #7f1518;
      }

      .st61 {
        fill: #b59fa0;
      }

      .st62 {
        fill: #a86061;
      }

      .st63 {
        fill: #b69d9e;
      }

      .st64 {
        fill: #413f41;
      }

      .st65 {
        fill: #a55a5c;
      }

      .st66 {
        fill: #be888a;
      }

      .st67 {
        fill: #d5b4b5;
      }

      .st68 {
        fill: #aa6566;
      }

      .st69 {
        fill: #7e7476;
      }

      .st70 {
        fill: #7e1518;
      }

      .st71 {
        fill: #9d4d4f;
      }

      .st72 {
        fill: #903436;
      }
    </style>
  </defs>
  <path class="st9" d="M28,0l2.01,1.13.1,21.78c174.34.36,348.6.24,522.79-.37l.1-21.13,2.01-1.42h4l2.01,1.13.11,21.78c197.99.36,395.92.24,593.77-.37l.11-21.13,2.01-1.42h3c.87.28.86.62,0,1,.32,8.02.65,16.02,1,24.01.09-.78.33-1.94.9-2,4.25-.49,21.85-.72,25.63,0l1.46,2v4c-.09.78-.34,1.95-.9,2-5.49.52-14.63.35-20.22,0-3.54.66-5.83,0-6.88-2-.87,128.11-.9,262.6,0,391,.09-.78.34-1.95.9-2,5.48-.49,15.87-.51,21.32,0,3.05-.61,4.98.06,5.78,2v3c-.25,1.34-.39,1.59-1.04.48-9.41-.21-18.73-.04-27.96.53.34,175.96.67,351.97.99,528.02.1-.78.33-1.92.9-2,4.44-.6,21.32-.68,25.64-.02l1.46,2v4c-.09.78-.35,1.96-.9,2-2.88.23-24.58.73-25.63,0-.73-.5-1.25-1.11-1.46-2-.68,5.43-.96,12.29,0,18,.09-.78.33-1.93.9-2,4.25-.49,21.85-.72,25.63,0l1.46,2v3c-.25,1.34-.39,1.59-1.04.47-9.12.25-18.11.1-26.96-.47-.34,2.74-.68,5.41-1.01,8.01-2.88,1.98-7.15-4.18-4.04-6.03-.86-.88-2.16-1.57-3.9-2.08-.75,2.96-7.63.1-7.07-2.84l1.08-2.01,8.94-.15-.14-13.82c-197.87-.25-395.75-.19-593.63.16,1.61,11.57-9.8,12.1-8.41.32-173.94-.74-348.16-.9-522.65-.48l-.12,13.84,23.56.13,1.45,2c1.28,2.85-7.37,5.65-8.97,3.05-6.15.27-12.17.56-18.06.89,4.2,2.02,1.76,10.27.17,14.18,2.89,1.43-.78,10.22-3.85,9.94-.78-.2-1.92-.49-2.01-1.11-.42-2.81-.76-19.18-.29-21.56l1.98-1.45c-7.2-.61-14.53-.79-21.99-.54-1.97,1.7-1.8-3.04-1.23-4.99l21.2-.56v-13.83s-19.42-.22-19.42-.22c-2.73-1.59-3.08-6.47-.42-7.74l19.76-.22c.12-174.86.15-349.74.09-524.64l2-1.25c-7.61-.36-15.28-.69-23-1-.28.87-.62.86-1,0v-3l.87-2,21.07-.08c.31-129,.19-257.94-.35-386.81l-19.66-.22c-1.09-.14-1.73-1.1-1.93-2.88v-3l1.17-2h20.71s.13-21.57.13-21.57l2-1.43h4ZM575.14,28.24l-16.14.86v390.76s16,.15,16,.15v3s-14.07-.05-14.07-.05c-1.07,0-1.82.39-1.93,1.05v527.83s16,.17,16,.17c0,.32.04,1.01,1.17,1.01h192.66c1.13,0,1.17-.7,1.17-1.01h204c0,.31.05,1.01,1.16,1.01h181.46c.42-.5.38-.84.38-1.01V423.11s-182.94-.07-182.94-.07l-204.28-.04.04-3,92.18-.02,16.66.23h25.69s17.66-.22,17.66-.22l234.99.02v-178.01s.41-19.32.41-19.32l-1.12-15.58c.32-.44.73-.94.73-2.23l-.02-175.88h-222.99c-.11-.66-.86-1.04-1.94-1.04h-21.13c-1.08,0-1.83.38-1.94,1.08-11.67-.56-23.36-1.43-35,.02-.11-.73-.86-1.11-1.94-1.11h-21.13c-1.08,0-1.83.38-1.93,1.03l-79.04-.41-194.82-.33ZM554.94,419.87V29.06s-526.88,0-526.88,0v390.88s526.88-.06,526.88-.06ZM27.86,423.15l.16,220.86c-.7.1-1.08.85-1.08,1.92v12.15c0,1.07.39,1.82.79,1.88-2.17,18.29-2.06,36.8,0,55.09-.39.07-.78.82-.78,1.89v13.15c0,1.07.39,1.82,1.06,1.91v220.01s236,0,236,0l16.05-.04c7.25,1.58,14.65,1.58,21.9,0l16.05.04h236.99s0-227.01,0-227.01c.67-.1,1.06-.85,1.06-1.92v-17.14c0-1.08-.39-1.83-.87-1.91.97-10.96,1.09-22.11.04-33.05.45-.08.83-.83.83-1.9v-17.14c0-1.08-.39-1.83-1.05-1.93v-226c.38.24,1.32-.17.71-1h-244.71c-.66.37-1.56.79-2.64.7-12.99-1.15-25.77-1.31-38.36.28.01-.3-.25-1.01-1.31-1.01l-240.83.19Z"/>
  <path class="st9" d="M27.8,1031.04c1.9,3.56,4.12,10.75.19,12.96,3.69.37,7.36.71,11.01,1,1.31-.74,3-.77,5.06-.08,2.48-2.48,7.88-.42,6.97,3.28l-23.01-.29-.02,30.1h-4v-29.96s-23.14-.23-23.14-.23c-.2-2.03.51-2.54,1.16-3.27,7.44.25,14.77.07,21.99-.54l.23-23.1c3.17-.47,6.12,8.31,3.56,10.14Z"/>
  <path class="st9" d="M1161,1045c8.43-.83,18.23-.8,27,0h1s0,3,0,3h-28c-.33,10.03-.67,20.03-1,30h-3l-.03-30.04-10.27-.02-.15-2.17,8.25-4.3c1.21-3,2.83-4.28,4.87-3.86.63,2.13,1.08,4.59,1.32,7.4Z"/>
  <path class="st24" d="M1161,1078h-1v-28.95c.01-.7.6-1.11,1-1.05v30Z"/>
  <path class="st70" d="M866.23,974.1c2.64.37,3.81,1.8,1.78,3.88,1.56-.8,2-.31.83,1.11l2.21.07c9.02,20.96,18.04,41.94,27.07,62.91l-1.36,1.9c1.01.05,1.07.4.23,1.03,4.42.78,2.09,2.34-1.24,2.8l-8.5.03c-2.64-.68-4.5-1.35-2.17-3.88l-1.2.16c-2.67-4.25-4.87-8.96-6.6-14.12l-25.58.02c-1.79,4.45-3.62,8.88-5.49,13.29l-2.26.62c.89.27.9.64.07,1.11.37,1.71-.41,2.2-2.01,1.96-12.33.61-24.96.77-37.89.51-3.22-.11-4.69-1.97-1.27-3.18l-2-.93c.05-21.39.11-42.79.16-64.19l2-1.2c-.91-.21-.94-.58-.14-1.11-.25-.85-.41-1.53-.28-1.59,2.47-1.2,11.43-1.84,10.38,1.61.82.3.82.67.03,1.09l2,.93.03,57.04c6.16-.28,12.23-.03,18.21.75l25.37-57.73,2.57-.89c-.91-.45-.65-.82.79-1.11-2.02-2.02-1.69-2.58,1.09-2.95-2-.4-1.58-3.25-.25-4.02,4.11-2.37,7.37,2.12,3.42,4.09ZM874.27,1017.93l-9.75-23.03-9.81,23.02h19.56Z"/>
  <path class="st70" d="M539.95,974.03c2.23.47,3.58,1.46,4.04,2.98.93.42.89.79-.09,1.13l4.05,1.35,41.03,42.58.03-42.88,2-1.19c-.81-.36-.8-.72.02-1.09-1.08-3.4,7.94-2.78,10.37-1.63.13.06-.03.74-.27,1.59,1.94.06,1.85.82-.14,1.13l2,.93c.03,21.39.07,42.79.1,64.2l-2,1.21c2.98-.1,2.67,3.13-.09,3.67-.03,1.17.26,2.3-.3,4.1l-4.19-4.37c-3.84-.61-5.25-2-4.24-4.18l-3.37-.74c-12.98-14-26.25-27.75-39.79-41.23l-.12,41.26-2,1.17c.8.45.72.78-.2.99,2.85,1.31,2.17,2.27-2.02,2.87l-6.51-.06c-3.69-.46-5.79-1.91-1.22-2.8-.82-.22-1.11-.56-.85-1.01l-2-.92c0-21.28-.02-42.57-.03-63.86l2-1.2c-.63-.43-.6-.79.1-1.1-2.29-.97-2.01-1.7,0-2.91-1.9.38-2.86-1.61-1.89-2.85,3.13-4.02,8.21-.53,5.58,2.89Z"/>
  <path class="st70" d="M366.94,974.03c2.36.45,3.37,1.44,3.05,2.98.78.11,1.19.26.94,1.09l4.08,1.37c13.86,14.2,27.51,28.58,40.96,43.14l.04-43.43,2-1.19c-.81-.35-.8-.72.02-1.09-1.14-3.38,7.94-2.79,10.32-1.69.13.06-.02.73-.25,1.58,1.95,0,1.87.79-.11,1.2.79.08,1.98.37,2,.93.65,18.41,1.01,40.18.09,58.5.7,3.69.03,5.99-1.99,6.9,2.98-.1,2.67,3.12-.09,3.67-.03,1.18.25,2.27-.29,4.12l-4.31-4.36c-4.02-.62-5.41-2.01-4.18-4.17-1.23.08-2.46-.33-3.68-1.23l-39.81-41.05.29,41.49-1.99,1.2c.8.56.72.89-.25.99,2.5,1.47,1.83,2.43-2.01,2.87l-6.51-.06c-3.69-.46-5.79-1.91-1.22-2.81-.82-.22-1.11-.56-.85-1.01l-2-.92s0-21.29-.03-63.86l2-1.2c-.63-.43-.6-.79.1-1.1-2.29-.97-2-1.71,0-2.94-2.56.2-2.85-2.36-1.06-3.89,2.66-2.27,7.5,1.2,4.74,3.96Z"/>
  <path class="st70" d="M110.86,974.12c2.42.33,3.45,1.3,3.08,2.92.79.14,1.26.22,1,1.05l4.22,1.58,40.76,42.55.09-43.03,2-1.2c-.91-.17-.96-.53-.18-1.07-.24-.86-.41-1.53-.28-1.59,2.31-1.08,8.43-1.09,10.74.01.12.06-.06.74-.33,1.61.82.28.82.64.03,1.06l2,.92c0,21.28,0,42.58,0,63.88l-2,1.2c.8.46.71.79-.21,1,2.89.08,2.7,2.35,0,3,0,1.17.52,2.27-.08,4.12l-4.26-4.39c-3.91-.55-5.35-1.81-4.33-3.79-1.36.02-2.75-.19-3.82-1.19l-39.53-41.4-1.73-4.62-.73.76.2,45.4.51,1.11c.85.37.8.72-.09,1.05,2.34,1.29,1.62,2.23-2.15,2.81l-6.53-.07c-3.43-.35-4.1-1.29-2.01-2.8-.92-.1-.97-.44-.22-1l-2-.92s0-21.29,0-63.88l2-1.2c-.49-.56-.34-.89.43-1-2.89.05-2.85-2.16-.19-3.01-1.75.16-2.87-.69-2.17-2.22,1.96-4.27,7.32-1.39,5.8,2.35Z"/>
  <path class="st70" d="M1046.59,974.24c2.46.38,3.6,1.3,3.42,2.75,1.89.4,2.25,1.04,1.09,1.93,1.07-.41,2.22-.16,3.45.73l40.36,42.32.1-42.76,2-1.19c-1.6-.27-1.5-.92.07-1.14-.27-.78-.46-1.39-.39-1.41,2.99-1.2,11.21-1.93,11.34,1.47-.96,21.23-.9,45.22-.04,67.07.87.28.86.62,0,1,1.18.97,1.19,2.03,0,2.98-.66,1.11-.93,2.14-1.26,4.12-1.52-1.39-2.48-2.93-3.68-4.14-3.94-.63-5.27-1.97-3.98-4.02-1.26-.06-2.62-.51-4.09-1.37l-39.99-41.63-.03,41.87-2,1.2c.8.46.72.79-.2,1,3.31,1.73.74,2.39-2.04,2.85l-6.53-.07c-3.3-.49-4.35-1.43-1.32-3.46l-2-.93c.03-21.39.07-42.79.1-64.19l2-1.2c-.88-.27-.87-.6-.02-1-2.86-.07-2.73-2.34,0-3.01-6.26-4.45,5.62-6.63,3.59.25Z"/>
  <path class="st70" d="M298.96,974.09c3.28.39,6.53.92,9.76,1.58l.22,1.46c1.41-.01,2.38.35,2.9,1.07,11.78,1.52,19.73,15.67,21.57,26.53,2.56,15.14-4.32,34.08-19.41,39.27l-2.98,1.22-.2,1.4-6.88,1.62c-6.6.08-12.32.08-18.84.03l-9.47-1.92-.43-2.36c-13.52-3.09-20.64-20.28-20.4-33.51s8.37-30.26,22.23-32.47c-.02-.54.67-.84,2.08-.91l-.28-1.31c3.41-.55,6.85-1.03,10.29-1.44.45-3.14,8.98-3.23,9.86-.26ZM291.7,1038.78c17.74,1.95,31.36-13.47,29.81-29.83-1.62-16.99-17.92-28.89-34.6-24.03-13.07,3.81-21.19,16.24-19.66,29.18s10.57,23.15,24.46,24.67Z"/>
  <path class="st70" d="M65.97,974.06c3.27.39,6.52.92,9.73,1.59l.21,1.46c1.15.04,1.82.4,1.99,1.06,13.81,2.34,22.08,18.95,22.3,32.06.23,13.73-6.51,29.77-20.3,33.92l-.29,2.16-9.71,1.86c-6.59.06-12.24.11-18.88.03-1.89-2.1-4.68-2.25-6.97-3.28-1.21-.08-2.24-.39-3.08-.94-6.34-1.47-11.64-6.6-13.18-12.94l-3.56-10.14c-2.05-5.82-2.17-12.95.09-18.78l3.85-9.94c1.11-7.4,7.69-12.82,14.82-14.13.82-.56,1.85-.87,3.07-.93l8.97-3.05c.66-3.15,10-3.02,10.93,0ZM64.16,1038.7c12.37-1.64,20.92-11.3,23.16-21.35,2.65-11.92-2.82-22.86-11.74-28.87-9.88-6.66-22.74-6.09-31.74,1.24-7.5,6.11-11.77,15.37-10.41,24.82,2.17,15.06,15.26,26.21,30.73,24.16Z"/>
  <path class="st70" d="M1000.96,974.06c3.29.39,6.55.93,9.76,1.63l.21,1.46c1.21.05,2.23.34,3.06.88,15.31,3.7,23.46,23.02,21.59,37.75-1.32,10.38-8.26,26.38-19.64,27.18-.28.92-1.26,1.66-2.94,2.24l-.2,1.4-6.89,1.59c-6.62.07-12.28.16-18.86.08l-9.49-1.95-.43-2.35c-13.32-2.55-20.46-19.79-20.4-32.61.06-13.23,7.48-30.43,21.37-33.34l3.25-.56.04-1.53c4.72-1.06,9.6-1.66,14.66-1.81-.15-2.93,4.34-2.87,4.92-.07ZM1023.06,1015.67c1.79-13.42-4.95-24.66-15.88-29.46s-24.57-2.15-32.11,7.74c-6.43,8.43-8.24,18.76-3.63,28.71,3.65,7.88,11.59,14.98,21.86,16.12,14.06,1.57,27.8-8.43,29.77-23.12Z"/>
  <path class="st70" d="M731.03,973.97c2.83.45,3.4,1.17,1,3.03.74.14,1.11.26.82,1.06l2.24.7c9.21,21.11,18.46,42.21,27.75,63.3l-.49,2.17c.9.08,1.94,1.88,1.27,2.38-1.99,1.5-9.06,1.02-11.61.4-2.7.79-3.97-.6-2.02-2.99l-2.21-.25-6.2-13.73-25.16-.02-5.25,12.66c-.51.63-1.39,1.01-2.62,1.14,1.5.16,1.74.4.47,1.25-.06,1.47-1.47,2.4-4.24,2.81l-8.5-.04c-2.89-.03-2.72-2.09-.03-2.86-1.97-.11-1.7-.84.25-.8l-1.45-1.66c9.48-21.25,18.97-42.51,28.46-63.79l2.58-.88c-2.54-1.83-.42-3.4,1.91-3.89-2.45-.2-2.05-3-.25-3.97,3.38-1.82,6.76,1.97,3.3,3.98ZM738.73,1017.69l-9.41-22.99-10.24,23.26,19.65-.27Z"/>
  <path class="st70" d="M1144.97,974.06l7.07,2.84c1.75.46,3.05,1.16,3.9,2.08.69,2.4,2.31,4.33,4.04,6.03.46-.58.8-.25,1.01.99v1c-.21.83-.54.81-.99.02-.56,3.06-1.58,3.68-3.06,1.87-1.7,6.48-5.43,5.91-11.19-1.69-2.86-1.85-6.35-1.87-9.33-.15-13.05,7.54,7.47,15.87,13.68,18.18,3.78,1.27,6.05,3.54,6.81,6.83,1.24-1.52,2.2-.42,2.86,3.29.44-1.32.85-1.1,1.22.65l1.9,9.99-1.89,9.99c-.15,1.32-.6,1.86-1.34,1.61l-3.52,5.45-9.45,4.89c-5.26,1.39-9.3.31-14.36.25-3.5-.37-6.23-1.41-8.19-3.14l.12-1.47c-4.59,1.29-10.28-10.82-9.79-13.85.65-4.01,11.19-7.15,13.97-4.1.87,9.42,10.94,15.5,18.44,8.43,11.59-10.91-6.53-18.61-15.14-21.82-11.09-6.23-18.6-16.85-11.12-29.33,1.8-3,2.72-4.23,6.46-4.87.29-.55.95-.86,1.98-.93l-.41-1.27c2.68-.82,5.47-1.43,8.37-1.81.4-3.06,7.3-2.89,7.94.03Z"/>
  <path class="st70" d="M636,974.02c3.4.41,6.73.94,10.01,1.58l-.04,1.48c1.16.04,1.82.39,1.98,1.07,4.89,1.08,9.72,5.58,6.58,10.41-1,1.53-8.47,6.62-10.08,4.2-2.97-5.71-8.38-9.07-14.58-5.6-13.15,7.35,9.49,16.39,15.18,18.59,3.61,2.17,14.3,10.52,12.95,15.07-.26.89-.83,1.56-1.59,2.08v6.21c3.28,4.6-2.8,14.23-8.37,15.11-.73,2.19-3.2,3.52-7.4,3.99-5.46.06-9.78.07-15.33-.01-3.72-.44-6.18-1.74-7.36-3.89-4.38.09-10.05-11.24-9.52-14.44.72-4.33,10.9-7.44,13.92-4.12,1.9,19.53,29.91,10.57,19.42-5.17l-20.57-10.71c-11.58-6.68-13.31-26.78-.2-31.84.35-.55,1.04-.85,2.08-.91l-.41-1.27c2.67-.82,5.46-1.41,8.36-1.78.03-2.96,4.4-2.81,4.97-.02Z"/>
  <path class="st70" d="M239.98,976.99c1.18.21,2.19.55,3.02,1.02,7.12.74,10.61,8.52,11.39,14.94,1.66,13.69-6.78,23.52-20.07,25.74-3.15.53-9.05,1.47-10.3-1.75-.87,8.72-.82,18.34-.01,27.06.84.36.8.7-.09,1,2.37,1.32,1.66,2.25-2.14,2.8l-6.53.04c-3.45-.38-4.13-1.33-2.02-2.84-.92-.1-.97-.44-.22-1l-2-.92c0-21.28,0-42.58,0-63.88l2-1.2c-1.56-.24-1.52-.98.03-1.31.11-.75.24-1.34.48-1.39,7.41-1.38,18.36-.93,25.82.26.28.05.48.66.64,1.43ZM224.02,1006.96c4.49-.05,9.69.95,14.08-2.1,5.05-3.51,5.68-12.63.78-16.6-4.18-3.39-9.58-3.37-14.85-3.23-.7.08-1.09.83-1.09,1.91v18.13c0,1.07.38,1.82,1.07,1.89Z"/>
  <path class="st6" d="M727.98,973.96c0,1.61-1.36,2.64-1.91,3.89-7.44-.42-14.81-.36-22.11.17,3.81,2.26,2.57,7.06-1.37,8.67l-13.59.53v55.6s-2,1.18-2,1.18c.8.46.72.79-.2,1.01,2.53,1.39,1.85,2.33-2.05,2.82l-6.51-.02c-3.3-.49-4.35-1.43-1.33-3.48l-2-.92.12-55.77c-4.21-.72-8.73-.94-13.56-.65-4.21-1.45-5.01-6.89-1.46-8.99-4.64-.35-9.32-.66-14.04-.93-4.73-2.56-8.77-1.42-9.97-3.05l.69-2c30.02-.02,60.05-.04,90.08-.05l1.21,2Z"/>
  <path class="st70" d="M478.86,976.93c1.68-.07,1.72.65.1,1.07,3.73,1.65,2.55,7.16-1.38,8.69l-13.6.53.2,55.7-2,1.19c2.39,1.93,1.58,3.19-2.43,3.77l-6.51-.07c-3.59-.25-5.61-2.56-1.88-4.01l-2-.92-.23-55.18c-4.18-.77-8.69-1.01-13.54-.7-4.21-1.45-4.99-6.9-1.44-8.99-.58-.27-.34-.66.73-1.17l-.51-1.43c3.92-.62,44.78-2.25,44.98,0,.04.49-.19,1-.49,1.52Z"/>
  <path class="st70" d="M933.4,976.46c1.39.6,1.57,1.12.55,1.55,3.76,1.6,2.58,7.15-1.36,8.68l-13.6.53.19,55.78-2,1.19c2.37,1.87,1.56,3.08-2.43,3.64l-6.5-.02c-3.42-.39-4.1-1.33-2.03-2.81-.92-.1-.97-.43-.22-1l-2-.91v-55.46c-4.16-.71-8.64-.92-13.42-.64-4.21-1.47-4.95-6.92-1.38-9-1.06-.83-.94-1.38.38-1.66,1.03-1.22,2.77-1.68,5.23-1.37,4.13-.39,36.64-.85,38.28.13.28.17.33.71.31,1.37Z"/>
  <path class="st70" d="M996.04,974.13c-3.79,1.71-8.9.08-14.7,3.34-10.51-.06-20.96.12-31.35.53.79.08,1.98.37,2,.93.62,18.31.95,39.99,0,58.21.69,3.68.02,5.97-2,6.86.79.47.7.8-.22,1,2.85,1.34,2.18,2.27-2.01,2.79l-6.52.06c-3.29-.54-4.38-1.47-1.34-3.52l-2-.93c.04-21.39.07-42.79.11-64.19l2-1.2c-2.6.06-4.81-.45-6.62-1.54-2.33-1.56-4.43-.62-7.42-.63l-28.93-.09c-3.22,0-5,.51-7.48.59l-.43.84c-7.09-.09-14.13.18-21.13.82-.83-1.11-1.42-2.49-1.78-3.88l.7-2c42.62,0,85.25.02,127.89.03l1.22,2Z"/>
  <path class="st70" d="M523.9,976.8c.87.37.92.77.1,1.2.79.08,1.98.37,2,.92.63,18.28.78,39.3,0,57.57.71,3.95.04,6.45-2,7.51.8.46.72.8-.21,1.01,2.53,1.39,1.84,2.32-2.04,2.79l-6.51.08c-3.3-.55-4.37-1.5-1.33-3.55l-2-.93c.03-21.39.07-42.79.1-64.19l2-1.2c-.92-.16-.97-.53-.19-1.09-.78-.84-.83-1.66.1-1.85,3-.64,10.59-1.76,9.97,1.75Z"/>
  <path class="st70" d="M350.89,976.81c.88.37.93.77.11,1.19l2,.92c0,21.28,0,42.58,0,63.87l-2,1.2c.8.46.72.8-.2,1.01,2.53,1.39,1.84,2.33-2.05,2.82l-6.52-.04c-3.31-.48-4.35-1.42-1.33-3.47l-2-.93c.03-21.39.07-42.79.1-64.19l2-1.2c-.91-.19-.95-.56-.16-1.11-.78-.84-.85-1.64.08-1.84,3-.63,10.6-1.77,9.96,1.75Z"/>
  <path class="st9" d="M513.91,1044.33c0,1.33.32,2.51,1.33,3.55h-55.48c1.29-.8,2.21-2.06,2.43-3.77l.92-2c16.54.07,33.08.14,49.63.21l1.17,2Z"/>
  <path class="st9" d="M285.09,1048.27l-63.32-.47c1.3-.37,1.48-1.78,2.14-2.8,15.69-.86,33.05-.85,49.06,0-.9-1.59-.16-1.92,2.22-1l9.9,4.28Z"/>
  <path class="st9" d="M1103.07,1047.97l-52.31-.11c1.3-.44,1.79-1.6,2.04-2.85,14.3-.85,29.78-.85,44.2,0-1.11-2.61.02-2.68,2.09-1.05l3.98,4.02Z"/>
  <path class="st9" d="M596.5,1047.73l-51.74.13c1.28-.45,2.19-1.51,2.02-2.87,14.32-.83,29.79-.85,44.22,0-1.39-2.08-1.08-2.2,1.26-1.45,1.73,1.27,2.81,2.7,4.24,4.18Z"/>
  <path class="st9" d="M167.44,1047.73l-51.68.13c1.32-.42,1.48-1.86,2.15-2.81,14.34-.59,29.01-.74,44.02-.44-1.1-1.91-.37-2.25,1.18-.67l4.33,3.79Z"/>
  <path class="st9" d="M423.39,1047.77l-51.64.1c1.16-.57,1.94-1.6,2.01-2.87,14.32-.84,29.79-.84,44.23,0-1.38-2.07-1.1-2.2,1.22-1.41l4.18,4.17Z"/>
  <path class="st9" d="M752,1047c.87.28.86.61,0,.99l-47.25-.13c1.28-1.13,2.5-2.79,4.24-2.81,12.9-.68,26.22-.84,39.95-.47-1.27-1.82-.54-2.29,1.03-.58.49,1.12,1.07,2.19,2.02,2.99Z"/>
  <path class="st9" d="M887.25,1047.86l-45.25.13c-.87-.28-.86-.61,0-.99,0-1.15.86-1.94,2.01-1.96,12.89-.62,26.2-.77,39.94-.46-1.07-2-.33-2.41,1.12-.61l2.17,3.88Z"/>
  <path class="st9" d="M676.9,1044.33c0,1.33.33,2.51,1.33,3.48l-37.59.39c2.12-1.65,5.15-3.44,7.4-3.99l3.8-1.98c1.5-.34,22.63-.57,23.6.1.73.51,1.25,1.11,1.46,2.01Z"/>
  <path class="st9" d="M1042.91,1044.33c0,1.33.32,2.51,1.32,3.46l-38.31.42c1.94-1.62,4.79-2.54,7.09-2.99,1.6-1.3,3.08-1.5,5.01-.98.05-.58.15-1.08.46-1.33,1.17-.96,20.16-.84,23.01-.58l1.41,2.01Z"/>
  <path class="st9" d="M340.91,1044.33c0,1.33.32,2.51,1.33,3.47l-38.31.45c1.93-1.65,4.79-2.58,7.09-3.03,1.47-.82,3.14-1.15,5.01-.98.05-.57.16-1.07.46-1.32.94-.77,20.89-1.05,23.01-.59l1.41,2.01Z"/>
  <path class="st9" d="M213.22,1045c.27,1.23.86,2.29,2.02,2.84l-43.46.16v-3c13.38-.85,28.04-.84,41.43,0Z"/>
  <path class="st9" d="M82.02,1044.08c8.45.27,16.85.58,25.2.92.27,1.23.86,2.29,2.01,2.8l-39.32.38,10-4.01c.93-.65,1.64-.68,2.11-.08Z"/>
  <path class="st9" d="M987.06,1048.29l-39.29-.5c1.27-.37,2.18-1.43,2.01-2.79,7.97-.82,17.02-.78,25.22,0-1.03-1.54-.32-1.89,2.14-1.02l9.93,4.31Z"/>
  <path class="st9" d="M451.36,1043.79c0,1.7.03,3.47,1.88,4.01l-25.25.2.09-3.67c.08-.78.27-1.93.83-2.02,2.45-.4,18.94-.9,20.99-.48l1.46,1.97Z"/>
  <path class="st9" d="M939.91,1044.33c0,1.33.32,2.51,1.34,3.52h-26.5c1.31-.77,2.19-2.03,2.43-3.64.1-.78.33-1.92.9-1.99,3.48-.44,10.42-.14,14.17.08,3.89-.7,6.44-.02,7.66,2.04Z"/>
  <path class="st64" d="M617.94,1044.3c2.48.01,5.35,2.2,7.36,3.89l-24.31-.18.09-3.67c1.24-2.17,4.13-2.84,8.67-2.02,3.22-.55,5.95.11,8.18,1.98Z"/>
  <path class="st9" d="M1132.34,1048.18l-24.34-.19c-.9-1.01-.92-2.05,0-2.98,4.33-.9,10.28-.86,15,0-.92-1.56-.37-2.17,1.28-1.43l8.06,4.6Z"/>
  <path class="st36" d="M802.85,1044.33c-.1.74,0,1.66.34,2.12.54.74,1.63.64,2.73.63l36.09-.08v.99s-48.01,0-48.01,0c-.87-.31-.85-.65.02-1.04.29-1.71,1.12-2.7,2.94-2.68.32-3.26,5.74-3.28,5.89.05Z"/>
  <path class="st53" d="M767.55,1043.82l2.41,1.13h22.62s1.44,2,1.44,2l-.02,1.04h-42s0-.99,0-.99l9.74-.14c-.12-.99.07-2.32.6-2.64-.55-2.95,4.44-3.16,5.2-.4Z"/>
  <path class="st64" d="M364.03,1045c-.53.48-.76,1.57-.31,1.84l1.53.97-16.5.02c1.31-.39,1.8-1.6,2.05-2.82,3.88-.88,9.12-.84,13.23-.01Z"/>
  <path class="st64" d="M537.03,1045c-.53.48-.76,1.57-.31,1.84l1.53.96h-16.5c1.31-.37,1.79-1.57,2.04-2.8,3.88-.88,9.12-.84,13.23,0Z"/>
  <path class="st64" d="M696.22,1044.97l.03,2.86h-11.51c1.32-.39,1.81-1.59,2.05-2.82,2.67-.87,6.62-.67,9.43-.04Z"/>
  <path class="st9" d="M906.22,1045c.27,1.23.86,2.29,2.03,2.81h-12.51s1.55-.98,1.55-.98c.48-.28.23-1.34-.31-1.82,2.16-.89,6.59-.81,9.23-.02Z"/>
  <path class="st70" d="M769.96,28.57l2.01,1.11.14,17.13c28.08-10.79,57.42-16.71,86.89-17.65,4.91-.84,9.91-.87,15-.1,11.64-1.46,23.33-.58,35-.02,4.98-.58,9.98-.59,15-.03,49.27,2.13,100.56,18.21,143.22,45.39,34.38,21.91,60.91,49.52,78.39,86.54,6.86,14.53,11.68,29.98,10.68,46.17l1.12,15.58-.42,19.32c-1.84,35.55-20.14,68.54-44.36,94.62-47.64,51.31-121.35,80.32-190.62,83.37l-17.66.22h-25.69s-16.66-.23-16.66-.23c-30.44-.71-61.16-7.01-89.97-17.95l-.19,16.55-2.02,1.42-.04,3c.91.1.97.44.21,1v528c-64.06.88-130.91.89-195,0l-2-.96c0-175.24,0-350.5,0-525.78l2-1.25c-.87-.28-.86-.62,0-1v-3s-2-.96-2-.96c.05-129.83.09-259.69.14-389.56l2-1.25,194.82.33ZM758.64,54.04c3.53-.58,4.32-1.38,6.32-2.36l-.08-18.46-184.86.04c2.14,2.86,3.81,4.56,6.38,6.45l171.98-.02.26,14.34ZM870.45,37.75c-18.39,1.15-36.11,3.4-54.02,7.36l-3.98.88c-22.27,4.93-43.48,12.21-64.07,21.94-7.64,3.61-14.81,6.89-21.59,12.02l23.05-10.76c19.83-9.26,40.76-14.7,61.9-19.99l3.23-.81c20.61-5.15,41.66-7.25,62.87-6.83l31.72.63,44.17,5.56,8.89,2.04,39.07,11.28c24.74,8.85,47.47,21.02,69.03,35.97l2.83,1.96c10.74,8.86,21.17,17.31,30.31,27.8,8.25,9.47,15.72,19.04,21.89,29.97,5.42,9.61,10.04,19.36,13.29,30.05,3.06,10.06,5.55,20.23,5.83,30.73l.4,15.5c-.95,33.92-14.57,64.83-35.86,90.66-5.77,7-11.46,13.19-18.99,19.66,3.64.4,5.56-2.94,7.72-5.19l11.51-12c22.48-23.45,39.31-58.64,41.4-91.69,1.09-17.26-.59-33.91-5.61-50.33-3.71-12.13-8.67-23.26-15.28-34.15-7.11-11.71-15.15-22.2-24.75-32.02-7.82-8-15.8-15.4-24.85-22.1l-6.3-4.67c-21.79-16.15-46.14-27.46-71.94-36.25-12.64-4.31-24.7-7.76-37.75-10.24l-10.58-2.01c-13.23-2.52-26.56-4.87-40.45-4.89l-43.09-.07ZM741.34,924.5l-138.35.03V56.53c-2-2.47-3.5-4.74-6.45-5.38l-.02,879.84h152.4c-1.96-2.59-3.92-4.62-7.58-6.49ZM608.92,420.01c-.49.85-.7,1.97-.16,2.89l-.76,1.1v492.74c-.72,1.18-.04,2.39,1,1.44l127.01-.08-.02-494.1c.37-.27.48-.6.44-1.01l-.27-3-.21-36.15c-39.66-21.02-76.86-53.69-95.76-94.97-7.23-15.8-12.15-31.8-13.72-49.19l-.05-30.5c1.34-16.64,6.07-31.91,12.73-47.03,18.49-41.96,54.88-74.53,94.83-96.11,1.83.43,2.72-3.82,1.69-3.96l-126.67-.07c-.36,0-1.01.22-1.01,1.3v355.47c-.12,1.17.56,1.25.92,1.25ZM763.96,77c-30.92,13.46-58.91,32.81-82.03,57.81-1.17,1.26-2.11,1.68-1.91,3.15-1.9.85-2.26,2.56-3.39,3.84-8.95,10.17-16.11,21.92-21.68,34.22-4.08,9.01-7.02,18.34-8.97,28.01-2.07,10.21-2.44,20.47-1.99,30.88.54,12.43,3.31,24.52,7.52,36.17,7.07,19.56,18.69,37.09,33.02,52.16,8.1,8.52,16.88,16.25,26.35,23.19,11.62,8.51,24.07,15.75,36.98,22.05,9.43,4.6,19.19,8.43,29.08,12.02,20.55,7.46,41.81,12.42,63.46,15.77,20.72,3.2,41.67,3.84,62.6,2.79l25.06-2.43c-3.77-1.93-7.91-.03-11.95.23l-13.12.85c-20.33,1.31-40.85-.81-61.04-3.81-20.11-2.99-39.63-8.64-58.93-15.13l-34.05-14.76-28.62-17.34c-10.72-8.03-21.22-16.59-30.25-26.55-14.33-15.82-26.05-34.05-32.77-54.36-3.8-11.47-6.09-23.61-6.37-35.69-.22-9.35.32-18.92,2.42-28.01,1.95-8.48,4.22-17.06,7.72-24.97,5.77-13.03,13.32-25.14,22.18-36.36,1.23-1.56,3.57-2.74,3.7-5.07,2.37-.67,3.42-2.7,5.24-4.64,21.12-22.56,46.19-40.29,73.85-53.18,13.84-6.42,28.42-10.67,43.02-15.73-16.16,2.42-30.8,8.64-45.14,14.88ZM1122.93,236.1l.66-11.95-.64-11.26c-5.69-54.26-48.18-95.76-95.17-119.73-37.14-18.94-77.58-28.28-119.11-30.8l-32.73-.48c-4.94,1.57-9.71.91-14.88,1.38-31.49,2.88-61.88,10.47-91.09,22.77v276.59c35.12,14.87,71.82,22.53,109.29,23.95l24.47-.07c40.87-1.48,80.73-10.28,117.88-27.84,49.36-23.33,95.51-66.25,101.32-122.56ZM727.09,80.11c-2.43-.12-4,.98-5.18,2.76,2.4.17,4.04-.97,5.18-2.76ZM722.09,83.11c-2.43-.12-4,.98-5.18,2.76,2.4.17,4.04-.97,5.18-2.76ZM758.48,357.39l6.51,3.33V88.21c-2.43.85-4.38,1.72-6.5,3.52v265.66ZM660.01,218c-1.56,3.13-1.59,10.04-.11,13.52,2.45,48.24,36.05,87.59,76.09,113.05l-.04-240.52c-10.66,6.82-19.65,13.61-28.36,21.59-4.63,4.25-9.25,7.72-12.89,13.11-19.54,20.77-34.48,51.29-34.7,79.25ZM1086.22,347.85c1.53.53,3.69-1.78,4.53-3.7-.21-.14-.69-.3-1.23-.12-1.13,1.14-2.73,2.13-3.3,3.82ZM1084.46,350.36c1.15-1.27-1.01-2.32-1.51-.62-.76.4-1.81,1.31-1.81,1.8,0,.51.99.89,1.38.45.3-.33.71-.87,1.95-1.63ZM764.99,946.46V397.44c-1.9-1.71-3.64-2.34-6.5-2.62v545.61c2.08,2.57,4.04,5.07,6.5,6.03ZM934.07,395.6c-.88-.93-3.42-.92-5.09-.16,0,.02.23.26.53.52,1.46.08,3.06.32,4.56-.36Z"/>
  <path class="st60" d="M311,423l10.54.98.45,1.1c27.26-1.23,57.52,9.18,82.75,21.07,50.55,23.83,92.26,62.73,119.56,111.59,16.9,30.25,30.59,67.28,29.78,101.28.55.09.98.19,1.01.36.5,3.56.48,8.05.13,11.59,1.04,10.94.92,22.09-.04,33.05.4,3.78.4,8.59-.11,12.4-.03.22-.47.39-1.04.54.22,35.82-13.72,72.55-31.36,103.48-23.79,41.73-58.99,76.49-100.73,100.16-31.52,17.88-67.49,30.77-103.95,31.39l-16.05-.04c-7.25,1.58-14.65,1.58-21.9,0l-16.05.04c-35.73-.61-70.95-13.01-102.02-30.25-47.83-26.53-85.45-66.09-109.98-114.95-12.56-25.01-23.36-53.58-23.16-81.73-.53-.08-.95-.18-.98-.35-.48-2.91-.45-6.77-.15-9.69-2.05-18.29-2.16-36.8,0-55.09-.42-2.56-.43-6.08.15-8.61.04-.18.53-.25,1.15-.29.85-34.59,15.17-70.51,32.76-100.14,23.64-39.82,57.53-72.95,97.79-95.81,30.39-17.26,65.27-30.12,100.43-31.08,3.19-.44,6.52-.45,9.99-.03,12.59-1.59,25.37-1.43,38.36-.28,1.08.1,1.99-.32,2.64-.7ZM252.94,431.7l-3.34.49c-35.11,5.59-69,18.3-98.65,37.88-10.35,6.84-21.1,13.67-30.01,23.08,11.06-7.71,20.91-15.72,32.1-22.27,28-16.39,58.77-27.99,90.9-32.9l10.21-1.56c14.83-2.27,29.98-2.82,44.91-1.45l12.29,1.12c11.98,1.09,23.91,2.81,35.52,5.92l7.06,1.89c12.99,3.48,25.42,8.5,37.93,13.38l3.18,1.8c13.59,6.17,26.22,14.02,38.91,21.87.11,1.12,1.27,1.46,1.97,1.97,22.63,16.56,42.86,36.29,59.24,59.09l4.52,6.3c9.04,12.59,16.31,26.4,22.46,40.67,6.16,14.31,11.44,29,14.88,44.2,3.21,14.17,5.64,28.57,6.57,43.03,1.17,18.19.25,36.52-1.98,54.71l-1.75,9.25c-6.35,33.5-18.86,65.35-37.29,94.03-5.76,8.96-12.2,17.32-20.02,26.28,3.39-.17,5.04-3.68,6.84-6.07l14.57-19.36c7.89-10.49,13.98-21.92,20.01-34.18,9.14-18.61,16.12-37.8,19.99-57.75l2.92-15.08c2.79-14.41,4.23-40.52,2.28-54.24.21-14.98-2.58-30.19-5.95-44.95-3.76-16.49-9.21-32.54-16.29-47.9s-15.2-30.53-25.58-44l-2.04-2.96c-14.68-21.29-34.13-39.88-54.99-54.79-13.92-10.55-29.29-19.4-45.18-26.61l-3.91-1.77c-13.25-6.01-27.13-10.98-41.35-14.19l-3.92-.89c-12.16-2.75-24.59-5.02-37.04-5.92l-3.81-.28c-18.68-1.36-37.59-.54-56.15,2.18ZM288.01,457.04l-15.86.28c-50.67,4.19-98.3,24.77-135.97,58.72-43.94,39.6-71.41,95.2-75.76,154.14l-.02,32.59c7.36,116.93,101.49,209.56,218.73,215.91l24.57-.07c116.62-6.39,210.6-99.28,217.93-215.78l-.06-31.47c-3.64-49.61-22.47-96.18-55.09-133.81l-24.98-25.04c-40.96-35.44-92.96-55.12-146.94-55.66-1.94-1.39-5.15-1.39-6.54.2ZM192.94,468.86c-6.6,2.64-12.85,5.71-19.04,9.14-30.52,16.92-57.58,40.05-78.63,67.94-11.46,15.19-21.9,31.31-29.6,48.82-5.47,11.91-11.94,26.74-13.55,39.48-.4-.09-1.22,0-1.45.3s.28,1.63.14,2.17c-3.36,13.56-5.26,26.7-6.17,40.06-1.15,16.82-.48,33.72,2.19,50.31,3.45,26.24,12.15,51.42,24.3,74.93,7.17,13.86,16.17,26.79,25.92,39.02,9.23,11.58,19.94,21.76,31.18,31.37,11.28,9.65,23.82,17.7,36.69,25.04,16.97,9.68,35.19,16.97,53.82,22.73,27.82,8.61,57.11,10.89,86.27,8.77l18.09-2.37c-4.24-1.77-7.94.31-12.06.5-2.91.14-6.09-.92-8.02.93-2.2-.9-4.43-.2-7.09-.15-25.44.46-50-3.51-73.87-10.8-19.19-5.86-37.47-14.4-54.86-24.36-11.67-6.68-22.51-14.77-32.95-23.22-11.11-8.98-20.53-19.75-30.1-30.32l-3.77-4.91c-7.87-10.27-15.31-20.89-21.13-32.42l-3.99-7.9c-10.95-21.7-18-45.13-21.55-69.17l-.54-3.63c-2.06-13.96-2.59-28.18-1.68-42.3.88-13.71,2.57-27.5,5.81-40.87,3.66-15.08,8.4-29.94,14.91-43.97,6.87-14.81,15.14-28.96,24.73-42.19,21.3-29.37,47.68-54.59,79.1-72.92l17.91-8.95,21.76-8.76c-8.95.75-15.79,4.85-22.81,7.66ZM114.17,498.82c1.96.48,4.68-2.96,6.63-5.6-.23-.22-.73-.42-1.28-.2l-5.35,5.8ZM476.89,867.38c-.09.03.49,1.03,1.07.14,1.42-1.55,3.48-2.73,4.15-4.93.03.02-.28-.19-.6-.55-1.57,1.68-3.8,3.02-4.62,5.35ZM333.1,924.65c-.4-.68-.9-.84-1.62-.72l-8.54,1.4c.15.33.44.59.58.7l9.57-1.39Z"/>
  <path class="st70" d="M1157,952c-59.99.88-122.87.89-183,0V424.01c-.85-.33-.82-.66.06-.98l182.94.07v528.89ZM1145.48,940.58c2.46,2.98,4.09,4.73,6.51,6.28V429.04s-172.88-.02-172.88-.02l6.35,6.49,160.05.08-.02,504.99ZM1128.87,924.48l-126.38-.06.02-472.49c-2.41-2.39-3.92-4.54-6.5-5.85l-.03,484.9h139.91s-7.02-6.49-7.02-6.49ZM1123.17,918.9v-461.89s-115.18,0-115.18,0v462.04s115.18-.15,115.18-.15Z"/>
  <path class="st24" d="M1160.99,952.02c-.15,0-.98.07-.98-.47V424c.32-.52.66-.49,1.01.04l-.03,527.98Z"/>
  <path class="st24" d="M1161,29v391c-.65-.25-1.01-.59-1.01-2.23V28.33c.82-.68,1.27.29,1.01.67Z"/>
  <path class="st24" d="M555,424h-231.76c-.99,0-1.26.64-1.24,1.08l-11-2.08h244.71c.6.83-.34,1.24-.71,1Z"/>
  <path class="st24" d="M270,423.97l-6.17.78c-1.49.19-2.91-.75-3.83-.75l-232.15-.86,240.83-.19c1.06,0,1.32.71,1.31,1.01Z"/>
  <polygon class="st24" points="974.06 423.03 974 424.01 770 424 769.79 423 974.06 423.03"/>
  <path class="st7" d="M770,952c0,.31-.04,1.01-1.17,1.01h-192.66c-1.13,0-1.17-.7-1.17-1.01h195Z"/>
  <path class="st7" d="M1157,952c0,.17.04.51-.38,1h-181.46c-1.11.01-1.16-.69-1.16-1h183Z"/>
  <path class="st21" d="M934,29h-10c-1.77,1.17-4.01.56-6.38.44l-8.62-.41c.11-.7.86-1.08,1.94-1.08h21.13c1.08,0,1.82.38,1.94,1.05Z"/>
  <path class="st21" d="M874,29.06c-2.23.28-5.2-.74-7.72.24-2.9,1.13-4.93-.1-7.28-.14l-9.99-.17c.1-.65.85-1.03,1.93-1.03h21.13c1.08,0,1.82.38,1.94,1.11Z"/>
  <path class="st46" d="M1187.96,423.48l-26.95.57-1.02-.04c-.06-.4.36-.99,1.05-.99l26.91.46Z"/>
  <polygon class="st24" points="1187.96 977.47 1161 978 1161 977 1187.96 977.47"/>
  <path class="st21" d="M555.22,670.97l-1.14-11.94c.55-.09,1.1-.92.9-1.95v-7.08c.68.11,1.07.86,1.07,1.93v17.14c0,1.07-.38,1.82-.83,1.9Z"/>
  <path class="st21" d="M555,724.99c0-2.71.68-5.71-.96-8.02l1.14-12.95c.48.08.87.83.87,1.91v17.14c0,1.07-.38,1.82-1.06,1.92Z"/>
  <path class="st24" d="M1161,25c-.35.06-.98-.16-1.04-.98l.04-23.02c.4-.06.98.35.98,1.05l.02,22.96Z"/>
  <path class="st24" d="M24,424l-21.96-.02c-.69,0-1.1-.58-1.04-.98l22.01-.02c.87,0,.99.68.99,1.02Z"/>
  <path class="st24" d="M24,978l-21.99-.54,21.01-.5c.82.06,1.04.68.98,1.04Z"/>
  <path class="st69" d="M28.85,725.07c-1.46,1.77-.85,4.56-.85,6.91-.67-.09-1.06-.84-1.06-1.91v-13.15c0-1.07.39-1.82.78-1.89l1.12,10.04Z"/>
  <path class="st37" d="M1161,956v18c-.66-.11-1.06-.84-1.05-1.95l.21-16.9c0-.31,1.29.27.84.84Z"/>
  <path class="st25" d="M46.07,977.11c-1.12.36-1.74.94-3.07.93l-14.99-.05c-.36.17-1.19-.09-.88-.99l18.95.11Z"/>
  <path class="st8" d="M29.03,651.04c-1.13,2.88-.94,5.92-1.29,8.91-.4-.05-.79-.81-.79-1.88v-12.15c0-1.07.39-1.82,1.08-1.92,0,2.38-.71,5.02,1,7.04Z"/>
  <path class="st24" d="M575,423v1s-16,0-16,0c.11-.67.86-1.06,1.93-1.05l14.07.05Z"/>
  <path class="st23" d="M1161,978v8s-1.01-.99-1.01-.99c.05-2.69-.64-5.84,1.01-8.01v1Z"/>
  <path class="st29" d="M1155.94,978.98c-1.51-.06-3.07-.64-3.9-2.08l4.71.34c.73.05-.14,1.95-.8,1.74Z"/>
  <path class="st31" d="M24,1044c.06.35-.16.98-.98,1.04l-21.01-.5,21.99-.54Z"/>
  <path class="st24" d="M1161,1016.01l-1.22-.65-1.42-3.74.1-22.51,1.54-2.09c.22-.12.73-.05.99-.02v29.01Z"/>
  <path class="st31" d="M1188,1045h-27s0-1,0-1h25.95c.69.01,1.11.6,1.05,1Z"/>
  <path class="st23" d="M1161,1044v1c-1.57-1.95-1-4.89-1.32-7.4l1.34-1.61v8.01Z"/>
  <path class="st31" d="M39,1044c.87.29.86.62,0,1h-10.03c-.86.01-.98-.65-.98-1h11.01Z"/>
  <path class="st29" d="M40.98,1043.98c1.33,0,2.09.5,3.08.94l-5.06.08v-1s1.98-.01,1.98-.01Z"/>
  <path class="st9" d="M863.06,974.03c-.35.94-.46,2.07-1.09,2.95-15.88.94-33.16.86-49-.07-2.06-2.78-7.99-2.63-10.1-.02-7.79.88-17.15.89-25-.07-3.22.56-7.53.55-10.76.02-11.1,1.04-23.66.97-35.08.15l-1-3.03,132.03.06Z"/>
  <path class="st24" d="M861.97,976.98l-.79,1.11-48.18-.1c0-.32-.13-.69-.03-1.09l49,.07Z"/>
  <polygon class="st31" points="883.95 1044.59 844.02 1045.05 843.95 1043.94 883.95 1044.59"/>
  <path class="st54" d="M802.87,976.89l.14,1.11h-25.01c-2.05.65-2.24-.25-.13-1.18l25,.07Z"/>
  <path class="st37" d="M889.57,976.33c.76.8.37,1.66-.38,1.66l-18.26-.04c-1.09,0-1.83.38-2.1,1.15l-.83-1.11c-.01-.43.31-.9,1.09-.93l20.48-.73Z"/>
  <path class="st31" d="M906,1044l.22,1-9.23.02c.08-.38-.1-.73-.23-1.03l9.25.02Z"/>
  <path class="st9" d="M536.26,973.99c.46.88.47,1.96,0,2.91-3.35.94-8.84.91-12.35-.1-2.04-2.59-7.89-2.56-10.07.11-11.1.93-23.74.89-34.96.02-.68-1.16-1.99-1.77-3.83-1.78l-37.1-.05c-1.89,0-2.46,1.14-3.05,1.73-1.75,1.15-4.98,1.02-6.78-.03-2.12-2.44-8.01-2.71-10.07.11-15.27.96-32.42.99-48.04.1-1.33-.67-2.33-1.69-3.05-2.98l169.31-.04Z"/>
  <path class="st9" d="M631.03,974.04l-7.95,3.06c-7.16.61-15.05.8-21.95-.23-2.11-2.55-8.04-2.76-10.1.04-14.62.94-31.95,1.03-47.04.1-1.89,0-3.23-1.36-4.04-2.98h91.08Z"/>
  <path class="st24" d="M591.03,976.91c.1.4-.02.77-.02,1.09l-47.11.14c.15-.39.13-.83.09-1.13l47.04-.1Z"/>
  <path class="st31" d="M591,1045h-44.22s.2-.99.2-.99h42.95c.72,0,1.13.6,1.07.99Z"/>
  <path class="st50" d="M623.08,977.09c-.66.24-1.21.91-2.08.91h-20.01s.14-1.14.14-1.14l21.95.23Z"/>
  <path class="st19" d="M536.25,976.9c.17.37.13.77-.1,1.1h-12.15c0-.32-.13-.7-.1-1.2l12.35.1Z"/>
  <path class="st31" d="M536.18,1043.99c.58,0,.95.43.85,1.01h-13.23s.21-1,.21-1h12.18Z"/>
  <path class="st9" d="M363.26,973.96c.46.91.47,1.99,0,2.94-3.35.94-8.84.91-12.36-.1-2.01-2.61-7.93-2.54-10.04.09-9.97,1.03-21.46,1.01-31.92.23l-9.98-3.04,64.29-.12Z"/>
  <path class="st24" d="M418.03,976.91c.1.4-.02.77-.02,1.09l-47.08.11c-.27-.28-.54-.9-.94-1.09l48.04-.1Z"/>
  <path class="st31" d="M418,1045h-44.23c.1-.29.26-.69.25-.99h42.9c.72,0,1.13.6,1.07.99Z"/>
  <path class="st31" d="M363.18,1043.99c.58,0,.95.43.85,1.01h-13.23s.2-1,.2-1h12.18Z"/>
  <path class="st19" d="M363.25,976.9c.17.37.13.77-.1,1.1h-12.15c0-.32-.13-.7-.11-1.19l12.36.1Z"/>
  <path class="st63" d="M434.88,976.83c.03.64-.29,1.01-.73,1.17h-6.16s.11-1.2.11-1.2c2.08.23,4.87.48,6.78.03Z"/>
  <path class="st9" d="M289.11,974.35l-10.01,2.75c-12.9.71-26.21.81-39.12-.1-8.78-1.6-18.47-3.89-26.95-.3-12.58,1.22-27.91,1.03-41.06.25-2.07-2.85-7.99-2.65-10.13-.02-15.23.97-32.3.97-47.9.13-1.64-.36-2.04-1.97-3.08-2.92l178.25.23Z"/>
  <path class="st64" d="M107.23,973.99l.19,3.01c-10.2.88-21.18.95-31.51.12l-9.94-3.05,41.26-.07Z"/>
  <path class="st24" d="M161.83,976.92l.18,1.07-47.07.1c-.28-.29-.68-.87-1-1.05l47.9-.13Z"/>
  <path class="st24" d="M118.03,996.73l-.03,47.27c-.33.08-1.02-.16-1.02-1.01l.03-46.83c.88-.38,1.19.48,1.03.57Z"/>
  <polygon class="st31" points="161.93 1044.61 117.91 1045.05 118 1044 161.93 1044.61"/>
  <path class="st50" d="M213.03,976.69c.5.65.29,1.03-.03,1.31h-41c0-.32-.13-.7-.03-1.06l41.06-.25Z"/>
  <polygon class="st31" points="213 1044 213.22 1045 171.79 1045 172 1044 213 1044"/>
  <path class="st54" d="M107.42,976.99c.03.42-.06.74-.43,1l-29.09.18-1.99-1.06,31.51-.12Z"/>
  <path class="st31" d="M107,1044l.22,1h-24.17c-.69-.02-1.11-.6-1.03-.92l24.98-.08Z"/>
  <path class="st9" d="M1137.03,974.03l-7.96,3.08c-6.85.64-14.43.81-21.03-.18-2.82-2.32-8.16-2.71-10.95-.05-14.22.71-30.82,1-45.9.85-.61,0-.97-.05-1.17-.74-1.55-.41-2.36-1.68-3.42-2.75l90.43-.21Z"/>
  <path class="st64" d="M1043.01,973.99v3.01c-10.13.91-21.52.79-32.07.15l-9.98-3.09,42.04-.07Z"/>
  <path class="st24" d="M1129.07,977.11c-.57.21-1.13.93-1.98.93l-3.6,2h-13.45s-.05,62.77-.05,62.77l-2,1.2c-.34,0-1.02-.11-1.02-1.04l.02-62.93c0-1.33.58-2.35,1.04-3.11l21.03.18Z"/>
  <path class="st24" d="M1097.09,976.88c.46.45.18.87-.07,1.14l-44.94-.02c-.72,0-1.13.61-.98.92-.54-.56-1.02-1.06-1.09-1.93l47.08-.12Z"/>
  <path class="st31" d="M1097,1045h-44.2s.2-1,.2-1h42.94c.72,0,1.13.61,1.07,1Z"/>
  <path class="st50" d="M1043,977l.02,1-29.01.03c-1.3,0-1.97-.56-3.06-.88l32.06-.15Z"/>
  <path class="st31" d="M1123,1045h-15s0-1,0-1c-.3-2.81,11.03-2.55,12.45-2.05,1.5.52,3.38,1.64,2.55,3.05Z"/>
  <path class="st50" d="M279.09,977.1l-2.08.91h-34.01c-1.15,0-2.16-.06-3.02-1.01l39.12.1Z"/>
  <polygon class="st50" points="340.85 976.89 341.02 978 311.84 978.2 308.94 977.13 340.85 976.89"/>
  <path class="st29" d="M313.99,1044l2.03.24-5.01.98c.54-1.32,1.87-1.21,2.98-1.22Z"/>
  <path class="st24" d="M981.35,977.47l-3.25.56-28.1-.03c.09-.63.86-1.1,1.95-1.09l29.39.56Z"/>
  <path class="st3" d="M1018.02,1044.23l-5.01.98c.67-1.35,1.92-1.66,2.94-2.24.4.79,1.23,1.11,2.07,1.26Z"/>
  <path class="st31" d="M748.95,1044.58l-39.95.47c.11-.34.22-1-.47-1.25l40.42.78Z"/>
  <path class="st61" d="M767.11,976.84c2.1-.36,2.18.47.02,1.16l-34.28.06-.82-1.06,35.08-.15Z"/>
  <path class="st31" d="M696.48,1044.17c-.56-.23-.69.53-.25.8l-9.43.04.2-1.01,9.48.17Z"/>
  <polygon class="st9" points="1159.79 1015.36 1156.92 1012.06 1156.95 988.89 1160.01 987.02 1159.79 1015.36"/>
  <path class="st17" d="M660.01,978l-12.06.14-1.98-1.07,12.1-.12c1.07,0,1.82.39,1.94,1.05Z"/>
  <path class="st24" d="M656.41,1029.1v-6.21c.44,2.41.45,3.79,0,6.21Z"/>
  <path class="st31" d="M272.97,1045h-49.06s.09-.99.09-.99h47.93c.73,0,1.14.61,1.04.99Z"/>
  <path class="st24" d="M224,1044.01c-.34,0-1.02-.12-1.02-.99v-25.02c0-.83.69-1.06,1.03-1.05v27.06Z"/>
  <path class="st24" d="M224.02,1006.96c-.69-.07-1.07-.82-1.07-1.89v-18.13c0-1.08.39-1.83,1.08-1.91l-.02,21.94Z"/>
  <path class="st24" d="M726.07,977.85l-22.11.17c.13-.64.91-1.13,2.01-1.09l20.11.92Z"/>
  <path class="st50" d="M513.82,976.91l.19,1.09h-35.05c-.2-.26-.54-.66-.1-1.07l34.96-.02Z"/>
  <path class="st13" d="M940.02,978h-6.07c-.04-.43-.49-1.03-.55-1.54l6.62,1.54Z"/>
  <path class="st31" d="M975,1045h-25.22s.22-1,.22-1l23.96.02c.69,0,1.11.58,1.05.98Z"/>
  <path class="st70" d="M777.87,976.82c-.39.52-.19.89.13,1.17v59.96s18.9.05,18.9.05l.06,6.26-.35,1.9c-.18.98-1.93,1.08-2.6.78h-25.21c-1,0-1.41-2.6-1.26-3.13l-.42-65.82c.29-.31.43-.7-.02-1.16,2.64-2.44,8.13-2.43,10.76-.02Z"/>
  <path class="st66" d="M741.34,924.5c3.66,1.87,5.62,3.9,7.58,6.48h-152.4s.02-879.83.02-879.83c2.95.65,4.45,2.92,6.46,5.38v868s138.34-.03,138.34-.03Z"/>
  <path class="st28" d="M764.99,946.46c-2.46-.96-4.42-3.46-6.51-6.03V394.81c2.86.28,4.61.91,6.52,2.62v549.02Z"/>
  <path class="st28" d="M758.48,357.39V91.73c2.13-1.8,4.08-2.67,6.51-3.52v272.51s-6.51-3.33-6.51-3.33Z"/>
  <path class="st66" d="M758.64,54.04l-.26-14.34-171.98.02c-2.57-1.89-4.24-3.59-6.38-6.45l184.86-.04.08,18.46c-2,.98-2.79,1.78-6.32,2.36Z"/>
  <path class="st51" d="M1074.26,91.22c4.39,4.39,1.9,6.73-3.55,5.83-21.55-14.95-44.28-27.12-69.03-35.97-3.6-1.35-3.28-5.85.64-6.11,25.8,8.79,50.15,20.1,71.94,36.25Z"/>
  <path class="st24" d="M609,918.18c-1.05.95-1.73-.26-1-1.44v-492.74c.31-.42.64-.41,1,0v494.18Z"/>
  <path class="st5" d="M1151.04,234.5c-2.09,33.05-18.92,68.24-41.4,91.69-1.27.39-1.35-.43-.24-2.47,21.3-25.83,34.91-56.74,35.86-90.66l-.4-15.5c2.65-.47,2.92,1.59,3.04,3.95-.9,5.28.15,9.61,3.14,12.99Z"/>
  <path class="st51" d="M657.34,265.76c6.72,20.31,18.44,38.54,32.77,54.36,1.07,2.64,2.35,6.1-1.55,5.83-3.26-.23-2.64-4.75-2.63-4.46.02.91-.41,1.46-1.4,1.75-14.32-15.07-25.95-32.6-33.02-52.16.46-3.31,2.85-9.98,5.84-5.31Z"/>
  <path class="st9" d="M736.16,419.99l.27,3c-41.74.84-85.95.92-127.67-.09-.55-.92-.34-2.04.16-2.89l127.24-.02Z"/>
  <path class="st5" d="M763.96,77c1.71-.52,2.41-.24,2.11.84-27.67,12.9-52.73,30.63-73.85,53.18-1.81,1.94-2.86,3.97-5.24,4.64l-1-1.44c-1.01,3.19-2.44,5.76-5.97,3.73-.2-1.47.75-1.89,1.91-3.15,23.12-25,51.11-44.35,82.03-57.81Z"/>
  <path class="st24" d="M608.92,420.01c-.36,0-1.04-.07-.92-1.25V63.29c0-1.08.65-1.29,1.01-1.3l-.09,358.02Z"/>
  <path class="st22" d="M1151.04,234.5c-1.38.54-2.29,1.4-2.94,3.95-1.7-.21-1.67-2.04-1.94-2.88-.18-.54.97-1.38,2.05-1.87-4.54-4.15-.57-10.74-3.35-16.15-.27-10.5-2.77-20.67-5.83-30.73-1.02-4.46,3.42-3.77,6.39-2.66,5.03,16.42,6.7,33.07,5.61,50.33Z"/>
  <path class="st56" d="M1130.15,150.02c3.43,6.27,1.96,8.52-4.4,6.76-6.17-10.93-13.64-20.5-21.89-29.97-.31-.38-.56-.77-.62-1.19-.16-1-.62-5.92-.49-6.21.54-1.27.97-1.6,2.67-1.42,9.6,9.82,17.64,20.32,24.75,32.02Z"/>
  <path class="st14" d="M650.97,230.07c.29,12.08,2.58,24.22,6.37,35.69-1.35.04-2.49.28-2.87,1.44-.23.7.83,1.96,1.01,2.5l-3.98,1.37c-4.21-11.65-6.98-23.74-7.52-36.17l1.88-6.06c1.64-.46,3.35-.05,5.11,1.23Z"/>
  <path class="st14" d="M1105.4,117.99c-2.46,3.66,2.22,6.16-1.55,8.81-9.14-10.49-19.58-18.93-30.31-27.8-1.52-3.42,2.08-3.42,4.11-.89.68-1.12,1.65-1.86,2.91-2.23,9.05,6.71,17.03,14.11,24.85,22.1Z"/>
  <path class="st15" d="M1145.43,184.17c-1.65,3.13-5.01-.61-6.39,2.66-3.25-10.69-7.87-20.44-13.29-30.05.6-.66,1.15-2.27,2.31-2.38l1.62,1.01c.62.39,2.11-1.5,1.39-2.08-1.46-1.18-1.62-2.22-.92-3.31,6.61,10.9,11.57,22.02,15.28,34.15Z"/>
  <path class="st12" d="M964.57,44.72c13.05,2.48,25.11,5.93,37.75,10.24-1,1.99-1.58,4.18-.64,6.11l-39.07-11.28c-4.19-2.37-3.45-6.48,1.95-5.08Z"/>
  <path class="st22" d="M683.28,140.73c-8.86,11.22-16.41,23.33-22.18,36.36-1.84.53-3.69,1.1-5.55,1.7-.79-.67-.99-1.6-.61-2.78,5.57-12.3,12.73-24.04,21.68-34.22.98.11,2-.66,3.06-2.31,2.51-1.49,5.07-2.91,3.59,1.25Z"/>
  <path class="st16" d="M690.11,320.11c9.03,9.97,19.54,18.53,30.25,26.55,3.58,3.75-.06,4.2-4.33,2.68-1.53-1.83-3.25-2.81-5.16-2.93-9.47-6.94-18.26-14.67-26.35-23.19-.06-.91-.73-3.59.35-4.23,1.7-1.01,2.49.85,2.66,2.01.14.95-.07,1.85-1.16,2.51,1.36,1.13,2.14,1.01,2.58.93,1.38-.25-.46-2.57,1.16-4.34Z"/>
  <path class="st30" d="M953.99,42.71c2.37,1.64,3.71,5.32-.27,5.04l-44.17-5.56c-2.87-1.68-1.55-3.13,3.98-4.37,13.89.02,27.23,2.38,40.45,4.89Z"/>
  <path class="st15" d="M661.1,177.09c-3.5,7.91-5.77,16.49-7.72,24.97l-2.14,5.1c-3.73.34-5.49-.71-5.27-3.14,1.96-9.67,4.89-19,8.97-28.01.57.3.84.49,1,.82,1.32,2.79,1.85-4.63,2.88-4.15,2.12.98,1.68,3.2,2.28,4.41Z"/>
  <path class="st11" d="M870.45,37.75c1.31-.21,1.94.27,2.08,1.51,5.16-.74,6.93.03,5.31,2.31-21.21-.42-42.26,1.68-62.87,6.83-1.6-1.63-.33-2.38,1.46-3.29,17.92-3.97,35.63-6.21,54.02-7.36Z"/>
  <path class="st56" d="M650.97,230.07l-2.9,3.04c.16-1.45.69-2.73-1.32-3.42.73,3.08-.78,4.59-2.77,5.21-.45-10.4-.07-20.66,1.99-30.88,1.24,1.36,2.83.36,4.78,1.62.59-1.3.99-2.73,2.63-3.58-2.09,9.09-2.64,18.66-2.42,28.01Z"/>
  <path class="st4" d="M783.03,378.76c19.3,6.49,38.82,12.14,58.93,15.13,2.63,1.65.96,2.17-1.56,2.37-21.65-3.35-42.91-8.31-63.46-15.77-2.21-3.78,1.97-2.88,4.73-1.31l1.36-.43Z"/>
  <path class="st71" d="M812.44,45.99c-.97,1.51-1.2,2.58-.7,3.21-21.15,5.29-42.07,10.73-61.9,19.99-2.11.54-3.04.47-1.46-1.26,20.59-9.73,41.8-17.01,64.07-21.94Z"/>
  <path class="st56" d="M720.37,346.67l28.62,17.34c2.7,1.11,1.74,4.54-1.13,4.47-12.92-6.3-25.36-13.54-36.98-22.05.45-.37.8-1.56,1.04-1.87.3-.39,1.14.82,1.87.86.02-2.19,2.37-1.67,1.69.16-.16.92-.43,1.55-.28,1.95s.93,1.41,1.35,1.3c.46-.13,1.2-1.59,1.63-1.51.71.14,1.64,2.81,1.89,1.27l.31-1.91Z"/>
  <path class="st18" d="M913.54,37.82c-.28.51-.59,1.51-1.26,1.6-.89.12-1.54.28-1.9.62-.45.43-.63,1.55-.83,2.15l-31.72-.63c.64-1.62-4.06-1.27-7.65-.18l.26-3.64,43.09.07Z"/>
  <path class="st15" d="M783.03,378.76c-.02,1.07-.19,1.85-.67,2.58-1.07-1.51-1.83-1.86-2.84-2.08-.92-.2-1.85.09-2.59,1.23-9.89-3.59-19.66-7.42-29.08-12.02l1.13-4.47,34.05,14.76Z"/>
  <path class="st57" d="M903,397.7c1.92.04,1.9.78,0,1.35-20.93,1.05-41.89.41-62.6-2.79l1.56-2.37c20.19,3,40.71,5.12,61.04,3.81Z"/>
  <path class="st24" d="M736.43,422.99c.04.41-.07.74-.44,1.01h-127s-1,0-1,0l.76-1.1,127.67.09Z"/>
  <path class="st41" d="M766.07,77.84c-.69-.52-1.37-.68-2.11-.84,14.33-6.24,28.97-12.46,45.14-14.88-14.6,5.06-29.18,9.31-43.02,15.73Z"/>
  <path class="st45" d="M964.57,44.72c-1.01-.28-2.69.17-2.54.8l.59,4.28-8.89-2.04c1.87-1.47-1.32-2.88.27-5.04l10.58,2.01Z"/>
  <path class="st39" d="M1109.64,326.19l-11.51,12c-2.16,2.25-4.08,5.59-7.72,5.19,7.53-6.47,13.22-12.66,18.99-19.66l.24,2.47Z"/>
  <path class="st1" d="M1080.56,95.89c.3,1.41-.22,2.23-1.06,3.15-.56.62-1.56,2.28-2.54,1.25l-1.78-1.86c-.29-.3-.98-.7-1.64.58l-2.83-1.96c1.3-.55,1.87-1.46,2.11-2.83,1.07.59,1.3,1.08,1.92,1.88.28-2.18-.23-3.48-.48-4.87l6.3,4.67Z"/>
  <path class="st32" d="M686.98,135.66c-.13,2.33-2.46,3.51-3.7,5.07-.34-.55-1.3-1.54-1.83-1.33-.84.34-1.97,2.57-3.92,3.55-.28.14-.91-.44-.91-1.16,1.13-1.28,1.49-2.99,3.39-3.84,1.1-.5,1.88-1.48,3.8-1.45-.51-2.9,3.22-6.59,5.5-4.85l-2.34,4.01Z"/>
  <path class="st48" d="M749.83,69.19l-23.05,10.76c6.78-5.14,13.95-8.41,21.59-12.02-.01.83.82,1.15,1.46,1.26Z"/>
  <path class="st72" d="M903,399.05v-1.35s13.11-.85,13.11-.85c4.04-.26,8.18-2.17,11.95-.23l-25.06,2.43Z"/>
  <path class="st10" d="M814.96,48.4l-3.23.81-1.86-.08c-.36-2.12.98-2.74,2.57-3.14l3.98-.88c-.54,1.13-.83,2.08-1.46,3.29Z"/>
  <path class="st24" d="M659.9,231.53c-1.48-3.48-1.45-10.39.11-13.52l-.11,13.52Z"/>
  <path class="st44" d="M1086.22,347.85c.57-1.69,2.17-2.67,3.3-3.82.53-.18,1.02-.03,1.23.12-.84,1.92-3,4.23-4.53,3.7Z"/>
  <path class="st59" d="M727.09,80.11c-1.14,1.79-2.78,2.92-5.18,2.76,1.18-1.78,2.75-2.88,5.18-2.76Z"/>
  <path class="st44" d="M722.09,83.11c-1.14,1.79-2.78,2.92-5.18,2.76,1.18-1.78,2.75-2.88,5.18-2.76Z"/>
  <path class="st44" d="M1084.46,350.36c-1.24.76-1.65,1.3-1.95,1.63-.39.44-1.38.07-1.38-.45,0-.49,1.05-1.39,1.81-1.8.5-1.71,2.66-.65,1.51.62Z"/>
  <path class="st44" d="M934.07,395.6c-1.51.68-3.1.45-4.56.36-.3-.26-.52-.5-.53-.52,1.67-.77,4.21-.78,5.09.16Z"/>
  <path class="st51" d="M444.29,479.19c20.85,14.91,40.3,33.5,54.99,54.79,2.07,7.58.7,10.26-4.13,8.02-16.37-22.8-36.61-42.53-59.24-59.09-1.12-1.35-1.77-3.39.33-3.44-.74-2.62-.47-4.05.81-4.28,2.17,2.17,4.58,3.5,7.24,4Z"/>
  <path class="st51" d="M53.73,724.78c3.55,24.04,10.61,47.47,21.55,69.17.73,2.36.01,4.3-2.36,5.08.36,2.84-.23,3.83-1.79,2.99-12.16-23.5-20.86-48.68-24.3-74.93-.57-2.49-.28-4.27.87-5.36l1.36-.39c1.12,1.48,2.68,2.63,4.67,3.44Z"/>
  <path class="st5" d="M249.6,432.19c1.56,2.78-.15,3.09-2.72,3.37-.73,1.23-1.72,2.04-2.96,2.43-32.12,4.91-62.89,16.5-90.9,32.9-1.87.69-2.56.41-2.08-.82,29.65-19.58,63.54-32.29,98.65-37.88Z"/>
  <path class="st5" d="M176.07,478.91c-31.42,18.33-57.8,43.55-79.1,72.92-3.41,1.78-3.85-1.5-1.26-3.77l-.44-2.12c21.04-27.89,48.11-51.02,78.63-67.94,1.94-.64,2.66-.33,2.17.91Z"/>
  <path class="st14" d="M526.9,580.94l-.77,2.47c1.7-.05,3.56,5.64,3.12,6.46-2.24,4.2-5.49,2.85-7.12-.91-6.14-14.27-13.41-28.08-22.46-40.67-.9-1.42-.51-3.09,1.17-5.02-1.37-1.83-1.89-6,.48-6.34,10.38,13.47,18.47,28.56,25.58,44Z"/>
  <path class="st5" d="M543.94,743.12c-3.87,19.95-10.84,39.14-19.99,57.75-6.02,12.26-12.11,23.69-20.01,34.18-1.36,1.43-2.05,1-1.39-.85,18.43-28.68,30.94-60.53,37.29-94.03,1.89-2.77,4.52-.58,2.91,2.39l1.19.56Z"/>
  <path class="st14" d="M444.29,479.19c-1.37.65-2.96.97-3.74.57-1.19-.6-1.76-2.26-2.09-3.36-1.93,1.32-1.72,2.34-2.22,3.07-1.08-.75-1.85-.25-2.3,1.47-12.69-7.85-25.32-15.69-38.91-21.87-1.46-.91-2.18-3.25-.91-4.63s3.44-2.69,5-1.88c15.89,7.21,31.26,16.07,45.18,26.61Z"/>
  <path class="st56" d="M526.9,580.94c7.08,15.36,12.53,31.41,16.29,47.9-.41,1.98-.48,4.04-.2,6.17-5.29,4.24-4.78-5.41-4.31-5.22.27.11.15,4.34-1.67,3.38-3.44-15.19-8.73-29.89-14.88-44.2,1.16-1.74,2.77-.29,1.38,1.49.81,1.16,3.04.17,1.84-2.27l1.14,1.41c.29.36.9-.56,1.18-.92.71-.93-.44-1.44-.05-3.15-.6-.55-2.07-.38-2.02,1.74-1.36-.66-1.77-1.87-1.6-3.33s.96-3.07,2.91-3Z"/>
  <path class="st16" d="M51.52,678.85c-.9,14.12-.38,28.34,1.68,42.3l-3.05,1.12c-.89-1.12-1.71-1.3-2.44-.54-.51,1.56-1.09,3.64-.87,5.36-2.66-16.59-3.33-33.49-2.19-50.31,2.94-1.68,6.71-1.62,6.87,2.08Z"/>
  <path class="st35" d="M543.19,628.84c3.37,14.76,6.15,29.98,5.95,44.95.98,7.41-2.49,11.4-5.57,2.4-.93-14.46-3.36-28.86-6.57-43.03,1.16-3.69,1.65-5.81,2.35-3.65.31.96,0,2.03.56,4.08.19.7,1.05,1.01,1.55.3.87-1.26-.43-4.36,1.72-5.05Z"/>
  <path class="st56" d="M395.21,450.8c-1.32,1.44-1.88,3.01-1.7,4.71l-1.66,1.77c-12.51-4.87-24.94-9.9-37.93-13.38-3.5-1.35-3.9-6.95-.06-7.29,14.22,3.21,28.1,8.18,41.35,14.19Z"/>
  <path class="st22" d="M546.86,728.04c-3.69,7.44-5.44,8.4-5.27,2.87,2.23-18.19,3.15-36.52,1.98-54.71,1.8.99,1.93,2.9,4.85,3.38l.72-5.78c1.96,13.72.52,39.83-2.28,54.24Z"/>
  <path class="st14" d="M79.27,801.85c5.82,11.53,13.25,22.15,21.13,32.42l.84,2.21c-2.14.52-3.34,1.3-3.6,2.33,1.22,1.49,1.54,2.55-.58,2.22-9.75-12.24-18.75-25.17-25.92-39.02.43-1.2,1-2.18,1.79-2.99h3.03c.76,2.01,1.86,2.95,3.32,2.82Z"/>
  <path class="st22" d="M96.98,551.83c-9.59,13.23-17.86,27.38-24.73,42.19-2.08,1.19-4.66,2.64-6.57.74,7.7-17.51,18.14-33.63,29.6-48.82,1.05-.01,1.64.57,2.02,1.39.45.97-.01,2.17-1.64,2.74.28,1.04.82,1.36,1.32,1.77Z"/>
  <path class="st56" d="M57.33,637.99c-3.25,13.36-4.94,27.16-5.81,40.87-.26-.48-1.32-1.38-1.74-1.12-.28.18-.48.98-1.27.62-.43-.19-.8-1.42-1.05-1.23-.27.21-.76.83-1.05,2.08l-1.76-2.43c.91-13.37,2.81-26.5,6.17-40.06.13-.54-.38-1.86-.14-2.17s1.05-.39,1.45-.3c4.16-10.72,4.95-2.81,5.21,3.75Z"/>
  <path class="st27" d="M309.09,429.52c.62,2.42-1.01,3.43-4.88,3.01-1.56,1.2-3.28,2.02-5.16,2.44-14.93-1.36-30.09-.81-44.91,1.45-5.83.52-5.18-2.18-1.2-4.73,18.56-2.72,37.46-3.54,56.15-2.18Z"/>
  <path class="st68" d="M222.07,917.06c4.59,3.06.25,3.6-3.32,3.11-18.63-5.77-36.85-13.05-53.82-22.73-1.87-2.03-.42-4.59,2.29-4.73,17.38,9.96,35.67,18.5,54.86,24.36Z"/>
  <path class="st15" d="M72.24,594.01c-6.51,14.03-11.25,28.89-14.91,43.97-3.96-2.88-.29-11.33-3.68-6.34.14,1.04-.17,1.86-.37,2.16-.19.28-.78.52-1.16.43,1.61-12.74,8.08-27.57,13.55-39.48,1.68-.39,2.89-1.61,3.98-2.82l2.59,2.08Z"/>
  <path class="st56" d="M104.17,839.18c9.57,10.57,18.99,21.34,30.1,30.32.18,3.87-2.25,4.81-6.03,2.91-11.24-9.61-21.95-19.78-31.18-31.37.74-.58.78-1.5.58-2.22,1.07-1.14,2.82-.67,5.25,1.4l1.28-1.04Z"/>
  <path class="st71" d="M303.03,928.01c1.55-.52,2.79-.79,1.99.94-29.17,2.12-58.45-.16-86.27-8.77l1.93-.58c1.21.07,2.22-1.34,1.39-2.53,23.86,7.28,48.43,11.26,73.87,10.8,2.66-.05,4.89-.75,7.09.15Z"/>
  <path class="st15" d="M349.94,435.72c2.67,2.06,1.23,6.72-2.1,5.23l-.98,1.06c-11.61-3.11-23.54-4.82-35.52-5.92-7.26-1.36-2.86-4.73,1.56-6.3,12.46.91,24.88,3.18,37.04,5.92Z"/>
  <path class="st35" d="M134.26,869.49c10.44,8.44,21.29,16.53,32.95,23.22-.73,1.8-.99,3.4-2.29,4.73-12.88-7.35-25.41-15.4-36.69-25.04,1.07-.83,1.47-1.7,2.16-3.81.91.93.84,1.86.91,4.03.43-1.46,1.24-2.65,2.96-3.13Z"/>
  <path class="st47" d="M153.03,470.89c-11.19,6.55-21.04,14.56-32.1,22.27,8.91-9.42,19.66-16.25,30.01-23.08l2.08.82Z"/>
  <path class="st34" d="M546.86,728.04l-2.92,15.08c-.77.35-1.53.8-2.32,2.11-.3.5-2-1.12-1.73-1.72.25-.55,1.04-1.27,2.37-1.86-.62-.67-1.3-1.14-2.42-1.49l1.75-9.25c-.56,1.72,1.17,2.66,2,1.11.11-1.33.14-2.14.49-2.67.53-.8,2.1-1.48,2.77-1.31Z"/>
  <path class="st49" d="M312.9,429.8c-.66,1.19-.37,2.48-.66,3.79-1.19-.38-2.04-.44-2.5-.25-.94.39-.87,1.62-.2,1.86s1.24.44,1.8.89l-12.29-1.12c4.51-7.62,7.74-2.68,10.04-5.46l3.81.28Z"/>
  <path class="st26" d="M503.95,835.05l-14.57,19.36c-1.8,2.4-3.46,5.9-6.84,6.07,7.82-8.97,14.27-17.32,20.02-26.28l1.39.85Z"/>
  <path class="st33" d="M501.32,536.94c-.84,2.16.39,3.58,1.34,5.67.72,1.57-1.77,4.38-3,5.69l-4.52-6.3c.97-1.36,2.34-1.38,4.14-1.44-1.12-2.93-1.41-4.83,0-6.58l2.04,2.96Z"/>
  <path class="st48" d="M192.94,468.86c1.58-.34,1.93-.37,1.05,1.1l-17.91,8.95-2.17-.91c6.18-3.43,12.43-6.49,19.04-9.14Z"/>
  <path class="st52" d="M349.94,435.72l3.92.89c-.94,2.36-.49,4.92.06,7.29l-7.06-1.89c-1-2.02-1.13-4.75.74-6.29l.82,4.97c.91-1.57.97-3.1,1.52-4.96Z"/>
  <path class="st42" d="M79.27,801.85c-1.11,2.28-2.62,5.4-6.28,3.54.87-1.89,2.69-2.25,3.38-2.78-.95-2.13-1.83-3.13-3.1-.78.12-1.2.09-1.78-.34-2.8-.32-1.94.68-3.61,2.36-5.08l3.99,7.9Z"/>
  <path class="st38" d="M395.21,450.8l3.91,1.77c-.65.02-1.45.63-1.27,1.18,1.66.62,1.91,1.66,1.84,2.4-.11,1.08-.75,2.33-1.77,2.16-.46-1.76-.46-2.8-2.09-3.62l-.8,4.38-3.18-1.8c-.4-1.68-.69-2.95-.09-4.85.42-1.32,1.53-1.63,3.45-1.63Z"/>
  <path class="st0" d="M104.17,839.18c-.15.92.26,1.46.64,1.87.59.64-.99,2.19-1.58,1.96-.47-.18-1.09-1.11-1.31-1.28-.32-.25-1.16.41-1.42,1.81-.62-1.68-1.09-3.85-2.86-4.74-.94-.47-2.87-2.62-.98-3.19,1.11-.3,3.07.55,3.74-1.36l3.77,4.91Z"/>
  <path class="st65" d="M252.94,431.7c.28,1.64-.37,2.87-1.87,3.95l3.06.78-10.21,1.56c-.2-2.18,1.29-4.69,3.77-4.57,1.16.06,1.73-.31,1.91-1.23l3.34-.49Z"/>
  <path class="st55" d="M193.99,469.96l-1.05-1.1c7.02-2.81,13.86-6.91,22.81-7.66l-21.76,8.76Z"/>
  <path class="st40" d="M53.2,721.15l.54,3.63c-1.28,1.06-4.14,1.46-5.51.3.25-1.07.6-2.84-.52-3.35-.27-.56-.34-.9-.33-1.31.02-.48.89-1.56,1.18-1.26l1.92,1.96c.49-.82-.08-1.72.72-3.91l1.99,3.94Z"/>
  <path class="st20" d="M305.02,928.95c-.32-.99-1.43-.71-1.99-.94,1.93-1.85,5.1-.79,8.02-.93,4.13-.19,7.82-2.27,12.06-.5l-18.09,2.37Z"/>
  <path class="st67" d="M436.24,479.47l-.33,3.44c-.7-.51-1.86-.85-1.97-1.97-.09-.91-1.47-1.99-1.95-3.16-.39-.95,2-3.02,3-1.44.59.93,1.36,1.88,1.26,3.12Z"/>
  <path class="st44" d="M114.17,498.82l5.35-5.8c.55-.22,1.05-.02,1.28.2-1.95,2.65-4.66,6.09-6.63,5.6Z"/>
  <path class="st44" d="M476.89,867.38c.81-2.33,3.04-3.67,4.62-5.35.32.36.63.57.6.55-.67,2.21-2.73,3.38-4.15,4.93-.58.89-1.15-.11-1.07-.14Z"/>
  <path class="st24" d="M294.54,456.83l-6.54.2c1.39-1.59,4.6-1.59,6.54-.2Z"/>
  <path class="st44" d="M333.1,924.65l-9.57,1.39c-.14-.11-.43-.37-.58-.7l8.54-1.4c.72-.12,1.22.04,1.62.72Z"/>
  <path class="st28" d="M1145.48,940.58l.02-504.99-160.05-.08-6.35-6.49,172.9.02v517.83c-2.43-1.55-4.06-3.3-6.53-6.28Z"/>
  <path class="st28" d="M1128.87,924.48l7.02,6.49h-139.91s.03-484.9.03-484.9c2.58,1.31,4.09,3.46,6.5,5.85l-.02,472.49,126.38.06Z"/>
  <path class="st62" d="M234.23,436.17c.89-.5,1.27.22,1.59.47.51.4.76,1.59-.16,2.2-.78.52-1.43.29-2.24-.75-.51-.65-.6-1.12.81-1.92Z"/>
  <path class="st58" d="M102.82,540.39c.14,1.86-.86,4.46-1.82,5.23-.6.48-1.95.45-3.66-1.24l4.02-4.62c.53-.61,1.4-.1,1.46.63Z"/>
  <path class="st2" d="M105.42,536.25c.44-.16,1,.52,1.22.8.57.71-.13,1.22-.44,1.69-.67,1.01-1.68.74-2.03-.26-.28-.81,0-1.78,1.25-2.23Z"/>
  <path class="st43" d="M50.5,673.41c.72,2.15-1.39,3.46-2.29,1.5-.27-1.45-1.28-2.33-1.89-2.87-.74-.65.94-2.42,1.51-2.08,1.22.72,2.75,2.31,2.67,3.45Z"/>
</svg>